<svg width="346" height="124" viewBox="0 0 346 124" fill="none" xmlns="http://www.w3.org/2000/svg">
<path d="M6.71999 68.7184C10.4313 68.7184 13.44 65.7098 13.44 61.9984C13.44 58.2871 10.4313 55.2784 6.71999 55.2784C3.00864 55.2784 0 58.2871 0 61.9984C0 65.7098 3.00864 68.7184 6.71999 68.7184Z" fill="#1A522A"/>
<path d="M92.3007 62.3984C92.3044 67.0176 91.333 71.5856 89.4498 75.8035C87.5667 80.0214 84.8143 83.7942 81.3727 86.8752C80.8628 87.336 80.3391 87.7787 79.8015 88.2032C74.0175 92.7813 66.8581 95.2741 59.4815 95.2784H59.4207C52.0227 95.2916 44.8384 92.7976 39.0399 88.2032C38.5471 87.8128 38.0607 87.4064 37.5903 86.9872C31.2443 81.3753 27.3213 73.5214 26.6464 65.0768V59.72C27.3301 51.2779 31.2515 43.4271 37.5903 37.8097C38.0607 37.3905 38.5503 36.9841 39.0399 36.5937C44.8384 31.9992 52.0227 29.5052 59.4207 29.5185H59.4815C66.8581 29.5227 74.0175 32.0155 79.8015 36.5937C80.3391 37.0203 80.8628 37.463 81.3727 37.9217V45.1952H75.5551C71.2013 41.1054 65.455 38.8243 59.4815 38.8145H59.4207C54.7418 38.8155 50.1687 40.2072 46.2823 42.8127C42.3959 45.4183 39.3716 49.1201 37.5935 53.448C37.5455 53.5632 37.5007 53.6816 37.4527 53.7968C35.298 59.3288 35.298 65.468 37.4527 71C37.5007 71.1152 37.5455 71.2336 37.5935 71.3488C39.3663 75.6818 42.3888 79.3889 46.276 81.9978C50.1632 84.6068 54.7392 85.9994 59.4207 85.9984H59.4815C64.2065 85.9845 68.8187 84.5532 72.7214 81.8896C76.6241 79.226 79.6378 75.4526 81.3727 71.0576L81.3887 71.016H59.4815V62.3984H92.3007Z" fill="#1A522A"/>
<path d="M85.2959 47.5824L71.4783 49.0864L85.1199 33.6881L85.2959 47.5824Z" fill="#1A522A"/>
<path d="M54.0287 66.952L63.3759 56.664V77.2368L54.0287 66.952Z" fill="#1A522A"/>
<path d="M8.42239 39.7809C13.5395 27.9425 22.5861 18.2332 34.0337 12.2932C45.4814 6.35322 58.6285 4.54663 71.254 7.17861C83.8796 9.81059 95.2097 16.7198 103.33 26.7391C111.451 36.7584 115.865 49.2736 115.825 62.1706C115.786 75.0675 111.296 87.5556 103.115 97.5252C94.9332 107.495 83.5612 114.335 70.9199 116.89C58.2785 119.445 45.1427 117.558 33.7314 111.549C22.3201 105.539 13.3329 95.7749 8.28799 83.9056" stroke="#1A522A" stroke-width="10.24" stroke-miterlimit="10"/>
<path d="M195.92 49.2386C195.261 47.1705 194.375 45.3182 193.261 43.6818C192.17 42.0227 190.864 40.6136 189.341 39.4545C187.818 38.2727 186.08 37.375 184.125 36.7614C182.193 36.1477 180.068 35.8409 177.75 35.8409C173.818 35.8409 170.273 36.8523 167.114 38.875C163.955 40.8977 161.455 43.8636 159.614 47.7727C157.795 51.6591 156.886 56.4205 156.886 62.0568C156.886 67.7159 157.807 72.5 159.648 76.4091C161.489 80.3182 164.011 83.2841 167.216 85.3068C170.42 87.3295 174.068 88.3409 178.159 88.3409C181.955 88.3409 185.261 87.5682 188.08 86.0227C190.92 84.4773 193.114 82.2955 194.659 79.4773C196.227 76.6364 197.011 73.2955 197.011 69.4545L199.739 69.9659H179.761V61.2727H207.205V69.2159C207.205 75.0795 205.955 80.1705 203.455 84.4886C200.977 88.7841 197.545 92.1023 193.159 94.4432C188.795 96.7841 183.795 97.9545 178.159 97.9545C171.841 97.9545 166.295 96.5 161.523 93.5909C156.773 90.6818 153.068 86.5568 150.409 81.2159C147.75 75.8523 146.42 69.4886 146.42 62.125C146.42 56.5568 147.193 51.5568 148.739 47.125C150.284 42.6932 152.455 38.9318 155.25 35.8409C158.068 32.7273 161.375 30.3523 165.17 28.7159C168.989 27.0568 173.159 26.2273 177.682 26.2273C181.455 26.2273 184.966 26.7841 188.216 27.8977C191.489 29.0114 194.398 30.5909 196.943 32.6364C199.511 34.6818 201.636 37.1136 203.318 39.9318C205 42.7273 206.136 45.8295 206.727 49.2386H195.92ZM219.2 97V44.6364H229.393V97H219.2ZM224.348 36.5568C222.575 36.5568 221.052 35.9659 219.779 34.7841C218.529 33.5795 217.904 32.1477 217.904 30.4886C217.904 28.8068 218.529 27.375 219.779 26.1932C221.052 24.9886 222.575 24.3864 224.348 24.3864C226.12 24.3864 227.632 24.9886 228.882 26.1932C230.154 27.375 230.791 28.8068 230.791 30.4886C230.791 32.1477 230.154 33.5795 228.882 34.7841C227.632 35.9659 226.12 36.5568 224.348 36.5568ZM261.221 117.727C257.061 117.727 253.482 117.182 250.482 116.091C247.505 115 245.073 113.557 243.186 111.761C241.3 109.966 239.891 108 238.959 105.864L247.721 102.25C248.334 103.25 249.152 104.307 250.175 105.42C251.221 106.557 252.63 107.523 254.402 108.318C256.198 109.114 258.505 109.511 261.323 109.511C265.186 109.511 268.38 108.568 270.902 106.682C273.425 104.818 274.686 101.841 274.686 97.75V87.4545H274.039C273.425 88.5682 272.539 89.8068 271.38 91.1705C270.243 92.5341 268.675 93.7159 266.675 94.7159C264.675 95.7159 262.073 96.2159 258.868 96.2159C254.732 96.2159 251.005 95.25 247.686 93.3182C244.391 91.3636 241.777 88.4886 239.846 84.6932C237.936 80.875 236.982 76.1818 236.982 70.6136C236.982 65.0455 237.925 60.2727 239.811 56.2955C241.721 52.3182 244.334 49.2727 247.652 47.1591C250.971 45.0227 254.732 43.9545 258.936 43.9545C262.186 43.9545 264.811 44.5 266.811 45.5909C268.811 46.6591 270.368 47.9091 271.482 49.3409C272.618 50.7727 273.493 52.0341 274.107 53.125H274.857V44.6364H284.846V98.1591C284.846 102.659 283.8 106.352 281.709 109.239C279.618 112.125 276.789 114.261 273.221 115.648C269.675 117.034 265.675 117.727 261.221 117.727ZM261.118 87.7614C264.05 87.7614 266.527 87.0795 268.55 85.7159C270.596 84.3295 272.141 82.3523 273.186 79.7841C274.255 77.1932 274.789 74.0909 274.789 70.4773C274.789 66.9545 274.266 63.8523 273.221 61.1705C272.175 58.4886 270.641 56.3977 268.618 54.8977C266.596 53.375 264.096 52.6136 261.118 52.6136C258.05 52.6136 255.493 53.4091 253.448 55C251.402 56.5682 249.857 58.7045 248.811 61.4091C247.789 64.1136 247.277 67.1364 247.277 70.4773C247.277 73.9091 247.8 76.9205 248.846 79.5114C249.891 82.1023 251.436 84.125 253.482 85.5795C255.55 87.0341 258.096 87.7614 261.118 87.7614ZM316.733 98.0568C311.824 98.0568 307.54 96.9318 303.881 94.6818C300.221 92.4318 297.381 89.2841 295.358 85.2386C293.335 81.1932 292.324 76.4659 292.324 71.0568C292.324 65.625 293.335 60.875 295.358 56.8068C297.381 52.7386 300.221 49.5795 303.881 47.3295C307.54 45.0795 311.824 43.9545 316.733 43.9545C321.642 43.9545 325.926 45.0795 329.585 47.3295C333.244 49.5795 336.085 52.7386 338.108 56.8068C340.131 60.875 341.142 65.625 341.142 71.0568C341.142 76.4659 340.131 81.1932 338.108 85.2386C336.085 89.2841 333.244 92.4318 329.585 94.6818C325.926 96.9318 321.642 98.0568 316.733 98.0568ZM316.767 89.5C319.949 89.5 322.585 88.6591 324.676 86.9773C326.767 85.2955 328.312 83.0568 329.312 80.2614C330.335 77.4659 330.846 74.3864 330.846 71.0227C330.846 67.6818 330.335 64.6136 329.312 61.8182C328.312 59 326.767 56.7386 324.676 55.0341C322.585 53.3295 319.949 52.4773 316.767 52.4773C313.562 52.4773 310.903 53.3295 308.79 55.0341C306.699 56.7386 305.142 59 304.119 61.8182C303.119 64.6136 302.619 67.6818 302.619 71.0227C302.619 74.3864 303.119 77.4659 304.119 80.2614C305.142 83.0568 306.699 85.2955 308.79 86.9773C310.903 88.6591 313.562 89.5 316.767 89.5Z" fill="#1A522A"/>
</svg>
