<svg width="153" height="155" viewBox="0 0 153 155" fill="none" xmlns="http://www.w3.org/2000/svg">
<path d="M8.46717 86.0252C13.1435 86.0252 16.9344 82.2343 16.9344 77.558C16.9344 72.8817 13.1435 69.0908 8.46717 69.0908C3.79087 69.0908 -1.52588e-05 72.8817 -1.52588e-05 77.558C-1.52588e-05 82.2343 3.79087 86.0252 8.46717 86.0252Z" fill="#1A522A"/>
<path d="M116.299 78.062C116.304 83.8822 115.08 89.6378 112.707 94.9524C110.334 100.267 106.866 105.021 102.53 108.903C101.887 109.483 101.227 110.041 100.55 110.576C93.262 116.344 84.2412 119.485 74.9467 119.491H74.8701C65.5485 119.507 56.4964 116.365 49.1903 110.576C48.5694 110.084 47.9565 109.572 47.3638 109.044C39.3678 101.973 34.4248 92.0769 33.5744 81.4368V74.6872C34.436 64.0502 39.3769 54.1582 47.3638 47.0802C47.9565 46.552 48.5734 46.0399 49.1903 45.548C56.4964 39.759 65.5485 36.6166 74.8701 36.6333H74.9467C84.2412 36.6386 93.262 39.7796 100.55 45.548C101.227 46.0856 101.887 46.6434 102.53 47.2213V56.386H95.1994C89.7136 51.2328 82.4733 48.3586 74.9467 48.3462H74.8701C68.9746 48.3475 63.2125 50.101 58.3157 53.384C53.4188 56.667 49.6082 61.3313 47.3679 66.7845C47.3074 66.9297 47.2509 67.0789 47.1904 67.224C44.4755 74.1943 44.4755 81.9297 47.1904 88.9C47.2509 89.0452 47.3074 89.1944 47.3679 89.3395C49.6015 94.799 53.4099 99.47 58.3078 102.757C63.2057 106.045 68.9713 107.799 74.8701 107.798H74.9467C80.9002 107.78 86.7115 105.977 91.6289 102.621C96.5463 99.2647 100.344 94.5103 102.53 88.9726L102.55 88.9202H74.9467V78.062H116.299Z" fill="#1A522A"/>
<path d="M107.473 59.3939L90.0626 61.2889L107.251 41.8869L107.473 59.3939Z" fill="#1A522A"/>
<path d="M68.0761 83.7995L79.8536 70.8367V96.7584L68.0761 83.7995Z" fill="#1A522A"/>
<path d="M10.6122 49.5639C17.0598 34.6475 28.4584 22.4138 42.8825 14.9295C57.3065 7.44506 73.8718 5.16875 89.7801 8.48505C105.688 11.8013 119.964 20.507 130.196 33.1313C140.428 45.7556 145.989 61.5248 145.94 77.7749C145.89 94.025 140.233 109.76 129.925 122.322C119.616 134.884 105.287 143.502 89.359 146.721C73.4309 149.941 56.8797 147.564 42.5015 139.991C28.1234 132.419 16.7995 120.116 10.4429 105.161" stroke="#1A522A" stroke-width="12.9024" stroke-miterlimit="10"/>
</svg>
